<?xml version="1.0" encoding="iso-8859-1"?>
<!-- Generator: Adobe Illustrator 19.0.0, SVG Export Plug-In . SVG Version: 6.00 Build 0)  -->
<svg version="1.1" id="Capa_1" xmlns="http://www.w3.org/2000/svg" xmlns:xlink="http://www.w3.org/1999/xlink" x="0px" y="0px"
	 viewBox="0 0 480 480" style="enable-background:new 0 0 480 480;" xml:space="preserve">
<path id="XMLID_1949_" d="M478.769,315.191L366.07,109.684c-0.01-0.018-0.02-0.034-0.028-0.052L337.618,57.8
	C318.066,22.147,280.661,0,240,0s-78.066,22.147-97.618,57.8l-28.424,51.832c-0.009,0.018-0.019,0.034-0.028,0.052L1.231,315.191
	C0.424,316.665,0,318.319,0,320c0,11.028,8.972,20,20,20h325c13.785,0,25,11.215,25,25s-11.215,25-25,25H165
	c-24.813,0-45,20.187-45,45s20.187,45,45,45h155c5.522,0,10-4.478,10-10s-4.478-10-10-10H165c-13.785,0-25-11.215-25-25
	s11.215-25,25-25h180c24.813,0,45-20.187,45-45s-20.187-45-45-45H21.405l101.951-185.91C132.603,144.083,145.713,150,160,150
	c16.338,0,30.87-7.876,40-20.031C209.13,142.124,223.662,150,240,150s30.87-7.876,40-20.031C289.13,142.124,303.662,150,320,150
	c14.287,0,27.397-5.917,36.644-15.91L458.595,320H420c-5.522,0-10,4.478-10,10s4.478,10,10,10h40c11.028,0,20-8.972,20-20
	C480,318.319,479.576,316.665,478.769,315.191z M320,130c-16.542,0-30-13.458-30-30c0-5.522-4.478-10-10-10s-10,4.478-10,10
	c0,16.542-13.458,30-30,30s-30-13.458-30-30c0-5.522-4.478-10-10-10s-10,4.478-10,10c0,16.542-13.458,30-30,30
	c-10.983,0-20.81-5.83-26.084-15.167l26.003-47.416C175.958,38.169,206.643,20,240,20s64.042,18.169,80.081,47.417l26.003,47.416
	C340.81,124.17,330.983,130,320,130z"/>
<g>
</g>
<g>
</g>
<g>
</g>
<g>
</g>
<g>
</g>
<g>
</g>
<g>
</g>
<g>
</g>
<g>
</g>
<g>
</g>
<g>
</g>
<g>
</g>
<g>
</g>
<g>
</g>
<g>
</g>
</svg>
