<?xml version="1.0" encoding="iso-8859-1"?>
<!-- Generator: Adobe Illustrator 16.0.0, SVG Export Plug-In . SVG Version: 6.00 Build 0)  -->
<!DOCTYPE svg PUBLIC "-//W3C//DTD SVG 1.1//EN" "http://www.w3.org/Graphics/SVG/1.1/DTD/svg11.dtd">
<svg version="1.1" id="Capa_1" xmlns="http://www.w3.org/2000/svg" xmlns:xlink="http://www.w3.org/1999/xlink" x="0px" y="0px"
	 width="376.2px" height="376.199px" viewBox="0 0 376.2 376.199" style="enable-background:new 0 0 376.2 376.199;"
	 xml:space="preserve">
<g>
	<path d="M188.1,0.003c-77.591,0-144.353,47.23-173.066,114.448c-1.891,1.787-2.646,4.053-2.527,6.314
		C4.457,141.685,0,164.376,0,188.103c0,103.717,84.383,188.094,188.1,188.094s188.1-84.377,188.1-188.094
		C376.2,84.383,291.817,0.003,188.1,0.003z M357.488,188.103c0,90.223-70.914,164.182-159.929,169.102
		c-28.476-46.752-45.361-127.336-12.845-176.274c0.798,0.45,1.565,0.932,2.387,1.354c9.877,5.045,20.722,7.706,31.348,7.706
		c20.989,0,38.587-9.919,47.093-26.542c30.647,3.702,59.674,0.311,87.617-13.274C355.959,162.382,357.488,175.057,357.488,188.103z
		 M18.706,188.103c0-21.437,4.046-41.939,11.341-60.84c39.141-20.319,82.106-24.816,124.864-16.31
		c-8.089,19.534-1.653,42.643,15.013,58.952c-34.449,52.766-23.157,132.729,5.931,187.092
		C88.149,350.689,18.706,277.376,18.706,188.103z M204.9,19.543c0.024,0.058,0.036,0.112,0.061,0.167
		c9.548,18.968,8.781,42.396-0.225,61.449c-0.421-0.006-0.847-0.08-1.272-0.08c-14.547,0-27.377,4.85-36.77,13.311
		c-41.905-9.752-84.35-8.135-123.908,6.765c29.639-49.343,83.68-82.447,145.315-82.447C193.769,18.708,199.374,18.995,204.9,19.543z
		 M347.891,131.964c-24.605,12.827-50.339,16.462-77.441,13.427c0.512-7.877-0.871-16.033-4.305-24.013
		c-5.895-13.713-17.02-25.292-31.316-32.586c-3.611-1.845-7.374-3.254-11.18-4.445c7.751-19.574,8.835-41.285,2.526-61.275
		C282.896,36.16,328.802,77.773,347.891,131.964z M173.011,116.171c5.23-10.257,16.623-16.379,30.452-16.379
		c7.684,0,15.588,1.957,22.853,5.666c10.418,5.325,18.462,13.6,22.646,23.315c2.971,6.908,3.665,13.905,2.119,20.258
		c-0.805,1.364-1.34,2.875-1.511,4.391c-0.219,0.493-0.401,1.002-0.651,1.482c-5.236,10.258-16.623,16.38-30.458,16.38
		c-7.679,0-15.588-1.958-22.847-5.66C174.683,154.941,164.544,132.765,173.011,116.171z"/>
</g>
<g>
</g>
<g>
</g>
<g>
</g>
<g>
</g>
<g>
</g>
<g>
</g>
<g>
</g>
<g>
</g>
<g>
</g>
<g>
</g>
<g>
</g>
<g>
</g>
<g>
</g>
<g>
</g>
<g>
</g>
</svg>
